{"title":"Delta Goodrem - Wings (2015.Pop)","uid":12276095,"size":79331198,"categoryP":"video","categoryS":"music_videos","magnet":"?xt=urn:btih:b9c282562c00819d4bb3be3003f994a9344cb5f5&amp;dn=Delta+Goodrem+-+Wings+%282015.Pop%29&amp;tr=udp%3A%2F%2Ftracker.openbittorrent.com%3A80&amp;tr=udp%3A%2F%2Fopen.demonii.com%3A1337&amp;tr=udp%3A%2F%2Ftracker.coppersurfer.tk%3A6969&amp;tr=udp%3A%2F%2Fexodus.desync.com%3A6969","seeders":0,"leechers":0,"uploader":"MeRaDil","files":1,"time":1440354664,"description":"DELTA GOODREM - WINGS\n\n &lt;a href=&quot;\nhttp://ultraimg.com/images/delta-2.png&quot; rel=&quot;nofollow&quot; target=&quot;_NEW&quot;&gt;\nhttp://ultraimg.com/images/delta-2.png&lt;/a&gt;\n &lt;a href=&quot;\nhttp://ultraimg.com/images/delta-3.png&quot; rel=&quot;nofollow&quot; target=&quot;_NEW&quot;&gt;\nhttp://ultraimg.com/images/delta-3.png&lt;/a&gt;\n &lt;a href=&quot;\nhttp://ultraimg.com/images/delta-4.png&quot; rel=&quot;nofollow&quot; target=&quot;_NEW&quot;&gt;\nhttp://ultraimg.com/images/delta-4.png&lt;/a&gt;\n\n\nGeneral\nDelta Goodrem - Wings\nFormat                                   : MPEG-4\nFormat profile                           : Base Media\nCodec ID                                 : isom\nFile size                                : 75.7 MiB\nDuration                                 : 3mn 26s\nOverall bit rate                         : 3 067 Kbps\nMusicVid name                            : Wings\nPerformer                                : Delta Goodrem\nGenre                                    : Pop\nContentType                              : Music Video\nRecorded date                            : 2015\nCover                                    : Yes\nRating                                   : ***\nMake                                     : MeRaDil\nArtist url                               : http://www.deltagoodrem.com/\nRelease date                             : Australia . august 7 . 2015\n &lt;a href=&quot;\nhttps://thepiratebay.se/user/MeRaDil&quot; rel=&quot;nofollow&quot; target=&quot;_NEW&quot;&gt;\nhttps://thepiratebay.se/user/MeRaDil&lt;/a&gt;\n\nVideo\nID                                       : 1\nFormat                                   : AVC\nFormat/Info                              : Advanced Video Codec\nFormat profile                           : &lt;a class=&quot;__cf_email__&quot; href=&quot;/cdn-cgi/l/email-protection&quot; data-cfemail=&quot;aee6c7c9c6eee29a809e&quot;&gt;[email&amp;#160;protected]&lt;/a&gt;&lt;script data-cfhash='f9e31' type=&quot;text/javascript&quot;&gt;\n/* &lt;![CDATA[ */!function(){try{var t=&quot;currentScript&quot;in document?document.currentScript:function(){for(var t=document.getElementsByTagName(&quot;script&quot;),e=t.length;e--;)if(t[e].getAttribute(&quot;data-cfhash&quot;))return t[e]}();if(t&amp;&amp;t.previousSibling){var e,r,n,i,c=t.previousSibling,a=c.getAttribute(&quot;data-cfemail&quot;);if(a){for(e=&quot;&quot;,r=parseInt(a.substr(0,2),16),n=2;a.length-n;n+=2)i=parseInt(a.substr(n,2),16)^r,e+=String.fromCharCode(i);e=document.createTextNode(e),c.parentNode.replaceChild(e,c)}t.parentNode.removeChild(t);}}catch(u){}}()/* ]]&gt; */&lt;/script&gt;\nFormat settings, CABAC                   : Yes\nFormat settings, ReFrames                : 2 frames\nCodec ID                                 : avc1\nCodec ID/Info                            : Advanced Video Coding\nDuration                                 : 3mn 26s\nBit rate                                 : 2 804 Kbps\nWidth                                    : 1 920 pixels\nHeight                                   : 1 080 pixels\nDisplay aspect ratio                     : 16:9\nFrame rate mode                          : Constant\nFrame rate                               : 25.000 fps\nColor space                              : YUV\nChroma subsampling                       : 4:2:0\nBit depth                                : 8 bits\nScan type                                : Progressive\nBits/(Pixel*Frame)                       : 0.054\nStream size                              : 69.1 MiB (91%)\n\nAudio\nID                                       : 2\nFormat                                   : AAC\nFormat/Info                              : Advanced Audio Codec\nFormat profile                           : LC\nCodec ID                                 : 40\nDuration                                 : 3mn 26s\nBit rate mode                            : Constant\nBit rate                                 : 256 Kbps\nChannel(s)                               : 2 channels\nChannel positions                        : Front: L R\nSampling rate                            : 44.1 KHz\nCompression mode                         : Lossy\nStream size                              : 6.32 MiB (8%)\n\nDelta Goodrem * Pop * Promo","torrent":{"xt":"urn:btih:b9c282562c00819d4bb3be3003f994a9344cb5f5","amp;dn":"Delta+Goodrem+-+Wings+%282015.Pop%29","amp;tr":["udp%3A%2F%2Ftracker.openbittorrent.com%3A80","udp%3A%2F%2Fopen.demonii.com%3A1337","udp%3A%2F%2Ftracker.coppersurfer.tk%3A6969","udp%3A%2F%2Fexodus.desync.com%3A6969"],"infoHash":"b9c282562c00819d4bb3be3003f994a9344cb5f5","infoHashBuffer":{"type":"Buffer","data":[185,194,130,86,44,0,129,157,75,179,190,48,3,249,148,169,52,76,181,245]},"announce":[],"urlList":[]}}